<svg clip-rule="evenodd" fill-rule="evenodd" height="512" stroke-linejoin="round" stroke-miterlimit="2" viewBox="0 0 24 24" width="512" xmlns="http://www.w3.org/2000/svg"><g id="Icon"><circle cx="8.5" cy="12" r="1"/><circle cx="12" cy="12" r="1"/><circle cx="15.5" cy="12" r="1"/><path d="m12 2.25c-5.381 0-9.75 4.369-9.75 9.75 0 1.858.521 3.594 1.425 5.072.036.057.048.119.038.18-.139.805-.452 2.621-.452 2.621-.041.239.036.483.207.655.171.173.415.252.654.212 0 0 1.843-.304 2.652-.435.061-.011.121.001.172.033 1.479.897 3.207 1.412 5.054 1.412 5.381 0 9.75-4.369 9.75-9.75s-4.369-9.75-9.75-9.75zm-7.082 16.838c.559-.092 1.213-.199 1.613-.264.417-.069.845.016 1.199.235 1.246.756 2.707 1.191 4.27 1.191 4.553 0 8.25-3.697 8.25-8.25s-3.697-8.25-8.25-8.25-8.25 3.697-8.25 8.25c0 1.571.44 3.039 1.201 4.283.227.364.313.799.24 1.223z"/></g></svg>