<svg enable-background="new 0 0 32 32" height="512" viewBox="0 0 32 32" width="512" xmlns="http://www.w3.org/2000/svg"><g id="Layer_14"><path d="m16.927 5.189 12.157 7.064c.473.275.473.957 0 1.232l-12.157 7.064c-.747.434-1.669.434-2.415 0l-12.157-7.064c-.473-.275-.473-.957 0-1.232l12.157-7.064c.746-.433 1.668-.433 2.415 0z"/><path d="m16.927 5.189 12.157 7.064c.473.275.473.957 0 1.232l-12.157 7.064c-.747.434-1.669.434-2.415 0l-12.157-7.064c-.473-.275-.473-.957 0-1.232l12.157-7.064c.746-.433 1.668-.433 2.415 0z"/><path d="m29.08 13.49-4.13 2.4-8.02 4.66c-.75.43-1.67.43-2.42 0l-8.02-4.66-4.14-2.4c-.47-.28-.47-.96 0-1.24l12.16-7.06c.75-.43 1.67-.43 2.42 0l12.15 7.06c.48.28.48.96 0 1.24z"/><path d="m17.684 21.847c-.603.345-1.279.526-1.964.526s-1.361-.181-1.956-.521l-7.274-4.227v3.755c0 .84.44 1.61 1.17 2.03l5.07 2.93c1.85 1.06 4.13 1.06 5.97 0l5.08-2.93c.72-.42 1.17-1.19 1.17-2.03v-3.755z"/><path d="m29.3 22.707v-7.61l-1.801 1.046v6.563c-.423.288-.701.773-.701 1.323 0 .884.717 1.601 1.601 1.601s1.601-.716 1.601-1.6c0-.55-.278-1.034-.7-1.323z"/></g></svg>