<svg height="512" viewBox="0 0 32 32" width="512" xmlns="http://www.w3.org/2000/svg"><g id="_44-Shield" data-name="44-Shield"><path d="m25.59 4.28a7 7 0 0 0 -5.16-2.28h-8.54a7 7 0 0 0 -6.89 8l1.66 11.67a6.34 6.34 0 0 0 2.93 4.5l3.2 2a6.35 6.35 0 0 0 6.46.17l3.75-2.09a6.38 6.38 0 0 0 3.24-5l1.13-11.62a7 7 0 0 0 -1.78-5.35zm-1.32 16.81a4.36 4.36 0 0 1 -2.22 3.41l-3.77 2.09a4.34 4.34 0 0 1 -4.43-.12l-3.2-2a4.31 4.31 0 0 1 -2-3.08l-1.65-11.71a5 5 0 0 1 4.89-5.68h8.54a5 5 0 0 1 4.95 5.45zm-.41-12.6a1 1 0 0 1 -.35 1.37 21.16 21.16 0 0 0 -8.6 9.55 1 1 0 0 1 -.91.59 1 1 0 0 1 -.9-.65 9 9 0 0 0 -3.61-4.51 1 1 0 1 1 1.1-1.68 11.37 11.37 0 0 1 3.29 3.3l.18.29a22.74 22.74 0 0 1 3.25-4.43 23.12 23.12 0 0 1 5.22-4.18 1 1 0 0 1 1.33.35z"/></g></svg>