<?xml version="1.0" encoding="UTF-8"?>
<svg xmlns="http://www.w3.org/2000/svg" width="675" height="458" viewBox="0 0 675 458" fill="none">
  <path d="M561.368 361.868L593.001 404.599L606.544 402.053L581.015 357.662" stroke="#231F20" stroke-miterlimit="10"></path>
  <path d="M439.624 361.868L472.984 428.145H486.064L462.482 361.868" stroke="#231F20" stroke-miterlimit="10"></path>
  <path d="M178.075 361.868C172.545 376.761 154.867 426.79 154.867 426.79H168.402L199.379 361.868" stroke="#231F20" stroke-miterlimit="10"></path>
  <path d="M26.8906 358.189C20.9426 373.615 0.999023 427.699 0.999023 427.699H14.9878L45.5509 361.868" stroke="#231F20" stroke-miterlimit="10"></path>
  <path d="M127.791 148.386C127.791 148.386 126.436 157.412 139.971 167.792L144.48 152.449L145.834 145.678L136.362 142.523C136.362 142.523 131.853 142.978 127.791 148.386Z" fill="#231F20" stroke="#231F20" stroke-miterlimit="10"></path>
  <path d="M379.578 119.963L389.202 91.7584C399.111 62.7294 426.323 43.1553 456.992 43.0039L645.07 42.087C663.913 41.9944 677.742 59.7601 673.031 78.0052L609.514 324.1C603.785 346.307 583.749 361.818 560.818 361.818H41.8716C23.7863 361.818 9.11621 347.156 9.11621 329.063V268.674C9.11621 250.589 23.7779 235.919 41.8716 235.919H300.163L379.578 119.955V119.963Z" stroke="#231F20" stroke-miterlimit="10"></path>
  <path d="M144.604 152.365L131.397 197.578C131.397 197.578 142.223 206.604 158.921 206.15L168.847 191.707L175.618 172.301L179.681 157.412L150.349 150.641L144.604 152.357V152.365Z" fill="#F2B3C1" stroke="#231F20" stroke-miterlimit="10"></path>
  <path d="M131.399 197.57C131.399 197.57 129.144 207.95 120.118 217.422C120.118 217.422 96.6581 239.082 85.8237 246.753C85.8237 246.753 79.0523 250.362 72.735 251.716C72.735 251.716 67.3179 252.616 69.1264 258.934C69.1264 258.934 69.5806 261.642 79.9523 261.188C79.9523 261.188 98.904 260.288 109.73 259.834C109.73 259.834 118.756 258.479 128.227 259.38C128.227 259.38 145.371 260.734 144.925 253.962V230.09C144.925 226.843 145.968 223.68 147.894 221.064L158.914 206.133C158.914 206.133 144.025 207.033 131.39 197.562L131.399 197.57Z" fill="white" stroke="#231F20" stroke-miterlimit="10"></path>
  <path d="M10.2021 260.33C10.2021 260.33 95.7581 269.768 182.391 265.714" stroke="#231F20" stroke-linecap="round" stroke-linejoin="round"></path>
  <path d="M155.514 94.5258C155.514 94.5258 108.837 57.6908 112.9 44.6105L117.409 36.0389C117.409 36.0389 119.663 28.8216 126.88 33.7845C126.88 33.7845 155.304 55.4448 183.281 59.5077L205.842 51.8362C205.842 51.8362 203.133 58.1534 203.133 69.8878L155.506 94.5427L155.514 94.5258Z" fill="white" stroke="#231F20" stroke-miterlimit="10"></path>
  <path d="M334.905 49.5734C331.296 13.0243 300.164 18.4415 300.164 18.4415C275.871 19.8883 246.632 28.9141 236.075 32.405C232.492 33.5911 229.438 35.9968 227.453 39.2101C218.94 53.039 218.94 78.451 218.94 78.451L203.151 69.8794C172.919 54.5363 156.676 91.9855 156.676 91.9855L127.799 148.386C135.016 144.778 148.105 154.704 148.105 154.704C170.665 169.592 168.865 191.707 168.865 191.707L195.942 152.903L232.492 234.573L313.716 238.636L335.99 141.077C341.567 92.7005 334.93 49.5734 334.93 49.5734H334.905ZM262.261 124.926C262.261 124.926 232.382 93.9034 233.383 93.794C253.689 91.5397 266.778 82.9681 266.778 82.9681C264.524 91.9939 262.269 124.934 262.269 124.934L262.261 124.926Z" fill="#FBE493" stroke="#231F20" stroke-miterlimit="10"></path>
  <path d="M532.538 258.488C509.077 262.997 505.46 256.679 505.46 256.679C505.46 256.679 491.926 183.127 488.317 182.227C485.76 181.588 483.657 183.438 482.648 184.574C481.739 185.592 480.831 186.618 479.889 187.61L461.787 206.705L457.185 211.559C452.836 215.781 448.479 219.44 444.206 222.612C419.223 241.168 397.176 243.145 397.176 243.145C397.176 243.145 305.58 190.798 300.617 180.873C295.654 170.947 314.152 160.112 314.152 160.112C316.171 159.212 317.903 158.321 319.401 157.454C327.619 152.71 328.586 148.832 328.586 148.832C329.545 147.015 330.521 145.577 331.472 144.45C334.979 140.261 338.066 140.261 338.066 140.261C343.929 138.452 346.638 133.943 346.638 133.943C347.513 132.749 348.548 131.529 349.725 130.293C354.52 125.271 361.687 120.013 369.653 114.983C375.516 111.282 381.816 107.699 387.923 104.426C396.318 99.9346 404.36 96.0315 410.416 93.1884C416.876 90.1685 421.082 88.3684 421.082 88.3684C421.082 88.3684 421.124 88.36 421.208 88.3432C421.839 88.2422 422.453 88.1497 423.042 88.074C423.252 88.0488 423.454 88.0235 423.648 87.9983C423.665 87.9983 423.681 87.9983 423.707 87.9983C434.894 86.7365 438.907 90.4125 439.117 90.6144C439.117 90.6144 439.117 90.6228 439.125 90.6228L448.151 95.1315L453.568 98.2859L483.136 90.4041C486.021 92.9697 489.907 95.0221 495.08 95.5773C495.08 95.5773 511.197 86.787 524.614 92.9612C526.086 93.6342 527.533 94.5006 528.921 95.5773C528.921 95.5773 538.3 101.306 542.211 128.005C543.448 136.45 544.138 146.99 543.81 160.104C543.894 164.865 544.213 169.433 544.684 173.723C546.022 185.894 548.562 195.803 550.245 201.448C551.229 204.737 551.927 206.579 551.927 206.579C557.344 219.668 559.144 235.456 559.144 235.456C561.853 255.762 532.521 258.471 532.521 258.471L532.538 258.488Z" fill="#F69074" stroke="#231F20" stroke-miterlimit="10"></path>
  <path d="M480.199 41.2205V61.0723C480.199 75.6498 468.381 87.4684 453.803 87.4684C444.904 87.4684 437.039 83.0606 432.252 76.3228C429.199 72.016 427.407 66.7502 427.407 61.0723V41.2205C427.407 26.6429 439.226 14.8244 453.803 14.8244C461.096 14.8244 467.691 17.7769 472.469 22.5548C477.247 27.3327 480.199 33.9275 480.199 41.2205Z" fill="#F2B3C1" stroke="#231F20" stroke-miterlimit="10"></path>
  <path d="M448.126 86.9216L448.16 95.1399C448.16 95.1399 433.271 115.446 431.917 123.563C431.917 123.563 470.275 98.2943 495.089 95.5858C495.089 95.5858 479.687 95.2661 475.204 76.4742C475.204 76.4742 466.599 90.4293 448.126 86.9132V86.9216Z" fill="#F2B3C1" stroke="#231F20" stroke-miterlimit="10"></path>
  <path d="M448.126 86.9216V93.3314C448.126 93.3314 459.793 93.6342 464.806 85.1383C464.806 85.1383 457.572 89.075 448.126 86.9216Z" fill="#231F20" stroke="#231F20" stroke-miterlimit="10"></path>
  <path d="M475.683 123.572C475.683 123.572 485.154 104.62 495.088 95.5941" stroke="#231F20" stroke-linecap="round" stroke-linejoin="round"></path>
  <path d="M456.731 191.253C456.731 191.253 475.683 184.481 486.963 178.618" stroke="#231F20" stroke-linecap="round" stroke-linejoin="round"></path>
  <path d="M344.375 173.209L371.452 134.852" stroke="#231F20" stroke-linecap="round" stroke-linejoin="round"></path>
  <path d="M361.577 148.613C382.388 145.224 381.824 133.506 381.824 133.506C381.824 133.506 381.37 123.58 390.85 119.063L415.219 107.783" stroke="#231F20" stroke-linecap="round" stroke-linejoin="round"></path>
  <path d="M430.562 87.4768C430.562 87.4768 431.916 93.3398 426.953 103.266" stroke="#231F20" stroke-linecap="round" stroke-linejoin="round"></path>
  <path d="M427.406 193.507C427.406 193.507 413.788 231.251 441.471 244.583C445.475 246.518 449.84 247.586 454.273 247.914C462.5 248.52 477.347 247.881 482.453 236.373" stroke="#231F20" stroke-linecap="round" stroke-linejoin="round"></path>
  <path d="M524.867 226.447C524.867 226.447 531.655 229.846 534.658 237.114C537.476 243.944 534.759 251.859 528.433 255.695C523.546 258.656 515.933 260.397 504.821 255.931L512.686 241.79L524.867 226.447Z" fill="#231F20" stroke="#231F20" stroke-miterlimit="10"></path>
  <path d="M525.321 214.721C526.221 215.621 542.019 215.176 552.845 232.319" stroke="#231F20" stroke-linecap="round" stroke-linejoin="round"></path>
  <path d="M546.981 214.267C546.981 214.267 536.273 212.846 527.188 215.134" stroke="#231F20" stroke-linecap="round" stroke-linejoin="round"></path>
  <path d="M302.863 178.172C302.863 178.172 304.672 172.057 311.502 167.212C317.836 162.72 325.945 161.341 333.39 163.519C338.58 165.042 343.408 168.457 341.919 176.069L328.124 172.301L316.39 177.264L304.655 180.418L302.847 178.164L302.863 178.172Z" fill="#231F20" stroke="#231F20" stroke-miterlimit="10"></path>
  <path d="M266.769 82.9597C266.769 82.9597 271.731 62.6537 278.049 54.9822" stroke="#231F20" stroke-linecap="round" stroke-linejoin="round"></path>
  <path d="M188.254 131.689C188.254 131.689 191.863 142.515 195.925 152.895" stroke="#231F20" stroke-linecap="round" stroke-linejoin="round"></path>
  <path d="M262.259 124.926C262.259 124.926 247.707 196.249 261.528 236.163" stroke="#231F20" stroke-linecap="round" stroke-linejoin="round"></path>
  <path d="M218.939 78.451C218.939 78.451 218.939 87.9226 221.648 94.2399C221.648 94.2399 223.902 95.5942 233.382 93.7856" stroke="#231F20" stroke-linecap="round" stroke-linejoin="round"></path>
  <path d="M205.851 51.8278C205.851 51.8278 202.242 63.108 203.142 69.8794L218.931 78.451C218.956 73.0338 219.402 66.6157 220.74 59.4993C221.715 54.3177 222.986 49.6828 224.323 45.6536C218.166 47.7144 212.008 49.7669 205.842 51.8278H205.851Z" fill="#F2B3C1" stroke="#231F20" stroke-miterlimit="10"></path>
  <path d="M204.496 278.794C204.496 278.794 194.099 318.388 213.059 361.759" stroke="#231F20" stroke-linecap="round" stroke-linejoin="round"></path>
  <path d="M223.901 267.959L508 277.465C539.687 278.525 568.548 259.337 579.836 229.72L629.272 99.9935C633.293 89.4451 640.157 80.2174 649.099 73.3366L664.745 61.2994" stroke="#231F20" stroke-linecap="round" stroke-linejoin="round"></path>
  <path d="M253.176 189.966C252.781 189.966 252.386 189.983 251.99 190.008" stroke="#ED1C24" stroke-miterlimit="10"></path>
  <path d="M410.274 247.225C411.006 248.057 412.444 250.085 413.42 253.979L404.916 253.643C403.074 253.567 401.223 253.718 399.415 254.072L370.554 259.842H370.512C370.318 259.901 369.444 260.111 368.064 260.322C360.83 261.398 339.742 262.29 330.842 238.182C330.842 238.182 322.27 243.599 313.699 241.791C313.699 241.791 313.312 263.064 306.507 265.739L287.521 264.805L283.013 249.916L275.551 211.424L274.441 205.696L268.578 199.378L270.126 195.803L304.673 186.298C304.673 186.298 357.019 165.992 372.354 181.789C372.354 181.789 382.591 174.841 394.174 196.485C396.294 200.438 398.001 204.594 399.381 208.859L406.329 230.393C406.666 231.419 407.347 232.277 408.23 232.832C408.642 233.093 409.088 233.278 409.576 233.396C414.362 234.506 425.096 236.735 433.272 236.399C433.272 236.399 429.747 245.66 410.493 246.745C410.241 246.762 410.106 247.056 410.274 247.25V247.225Z" fill="#FBCEAD" stroke="#231F20" stroke-miterlimit="10"></path>
  <path d="M312.984 248.419C312.984 248.419 313.245 247.662 313.699 241.799C313.699 241.799 313.312 263.072 306.507 265.747L287.522 264.814L283.013 249.925L275.552 211.433L284.367 210.667L286.277 214.065C290.247 221.123 291.181 229.484 288.876 237.24C288.094 239.864 289.465 242.649 292.022 243.624C297.582 245.752 307.037 248.924 312.984 248.419Z" fill="black" fill-opacity="0.1" stroke="#231F20" stroke-miterlimit="10"></path>
  <path d="M392.341 234.952C392.013 237.416 391.071 239.755 389.607 241.765C386.234 246.4 379.185 255.047 370.554 259.842H370.512L368.064 260.322C360.83 261.398 339.742 262.29 330.842 238.182C330.842 238.182 322.271 243.599 313.699 241.791V238.636L330.397 231.865C330.397 231.865 348.448 252.625 368.754 235.928C368.754 235.928 385.897 220.139 392.669 207.504C392.669 207.504 394.191 221.19 392.349 234.952H392.341Z" fill="black" fill-opacity="0.1" stroke="#231F20" stroke-miterlimit="10"></path>
  <path d="M410.274 247.225C411.006 248.057 412.444 250.085 413.42 253.971L404.916 253.634C403.074 253.559 401.223 253.71 399.414 254.063L370.554 259.834C370.554 259.834 383.138 253.298 391.743 237.837L401.24 238.174C401.24 238.174 402.14 237.719 403.494 239.528L408.238 232.807C408.651 233.068 409.096 233.253 409.584 233.37C414.371 234.481 425.104 236.71 433.28 236.373C433.28 236.373 429.756 245.635 410.501 246.72C410.249 246.737 410.114 247.031 410.282 247.225H410.274Z" fill="white" stroke="#231F20" stroke-miterlimit="10"></path>
  <path d="M403.494 239.536C403.494 239.536 409.265 243.355 410.266 247.208" stroke="#231F20" stroke-linecap="round" stroke-linejoin="round"></path>
  <path d="M313.699 238.636L316.854 224.647" stroke="#231F20" stroke-linecap="round" stroke-linejoin="round"></path>
  <path d="M330.396 231.865L332.651 216.522" stroke="#231F20" stroke-linecap="round" stroke-linejoin="round"></path>
  <path d="M372.354 181.781C372.354 181.781 388.143 187.644 392.66 207.504" stroke="#231F20" stroke-linecap="round" stroke-linejoin="round"></path>
  <path d="M276.696 205.241L268.57 257.588L256.39 261.196C256.39 261.196 256.398 261.146 256.424 261.037C256.71 259.573 258.552 248.276 248.887 238.729C248.845 238.678 248.786 238.619 248.735 238.577C247.087 236.937 245.093 235.364 242.713 233.909C239.861 232.168 238.448 228.794 239.129 225.531L243.057 206.798C243.512 204.611 244.639 202.617 246.262 201.086L257.576 190.479C263.204 191.799 274.997 195.669 276.696 205.233V205.241Z" fill="#FBCEAD" stroke="#231F20" stroke-miterlimit="10"></path>
  <path d="M277.151 195.316C277.151 195.316 269.933 193.961 269.933 207.496L268.125 241.336L267.225 256.679C267.225 256.679 267.124 265.587 278 268.801C288.237 271.829 297.625 269.608 306.97 268.212C307.668 268.111 307.912 267.228 307.366 266.782C304.766 264.662 298.626 260.145 290.239 257.134C290.239 257.134 285.276 254.879 285.731 244.953L284.376 213.821C284.376 213.821 285.731 196.678 277.159 195.324L277.151 195.316Z" fill="#FBCEAD" stroke="#231F20" stroke-miterlimit="10"></path>
  <path d="M184.168 255.3L171.113 252.625C171.113 252.625 173.485 249.916 184.984 247.132C191.1 245.652 196.332 241.69 199.394 236.197C199.444 236.104 199.495 236.02 199.545 235.928L215.334 202.087C215.334 202.087 223.132 188.031 233.672 195.736L226.16 238.182L199.991 258.942L185.548 256.234L184.16 255.3H184.168Z" fill="#FBCEAD" stroke="#231F20" stroke-miterlimit="10"></path>
  <path d="M264.81 235.881C267.628 232.377 265.799 226.227 260.723 222.145C255.648 218.063 249.249 217.594 246.43 221.098C243.612 224.603 245.441 230.753 250.517 234.835C255.592 238.917 261.991 239.385 264.81 235.881Z" fill="white" stroke="#231F20" stroke-miterlimit="10"></path>
  <path d="M250.526 222.839C250.526 222.839 248.962 225.96 249.735 228.315C250.097 229.4 251.317 229.972 252.343 229.467C253.277 229.005 254.429 227.844 255.489 225.093" stroke="#231F20" stroke-linecap="round" stroke-linejoin="round"></path>
  <path d="M240.441 200.085C239.086 201.372 238.085 202.995 237.539 204.787C236.075 209.599 232.845 219.693 229.85 225.396C228.664 227.659 226.502 229.24 223.987 229.711C221.254 230.224 216.964 231.402 212.623 234.119C212.817 233.9 219.428 226.372 218.494 215.546C218.276 212.938 218.949 210.331 220.345 208.135C224.198 202.079 233.282 191.656 250.905 190.1L240.432 200.093L240.441 200.085Z" fill="#FBCEAD" stroke="#231F20" stroke-miterlimit="10"></path>
  <path d="M248.887 238.729C258.266 248.158 256.676 259.573 256.424 261.037C256.398 261.138 256.39 261.196 256.39 261.196C253.681 264.351 230.221 263.451 230.221 263.451C223.449 263.905 222.549 259.842 222.549 259.842C221.649 262.097 217.586 262.551 217.586 262.551H205.406V250.371C205.86 236.382 212.624 234.127 212.624 234.127C216.972 231.419 221.262 230.233 223.988 229.72C226.503 229.249 228.665 227.667 229.851 225.404C232.845 219.701 236.076 209.616 237.539 204.796C238.086 203.004 239.079 201.38 240.441 200.093L250.914 190.1C251.25 190.067 251.578 190.041 251.923 190.016C251.948 190.016 251.974 190.016 251.999 190.016C252.394 189.991 252.79 189.974 253.185 189.974C253.378 189.974 253.572 189.974 253.765 189.983C254.304 189.999 254.834 190.041 255.372 190.1C255.38 190.1 255.389 190.1 255.397 190.1C255.751 190.142 256.104 190.193 256.457 190.252C256.474 190.252 256.482 190.252 256.499 190.26C256.676 190.294 256.861 190.327 257.046 190.361C257.223 190.395 257.408 190.437 257.584 190.479L246.271 201.086C244.639 202.609 243.52 204.602 243.066 206.798L239.137 225.531C238.456 228.794 239.869 232.168 242.721 233.909C245.101 235.356 247.095 236.929 248.744 238.577C248.794 238.619 248.853 238.678 248.895 238.729H248.887Z" fill="white" stroke="#231F20" stroke-miterlimit="10"></path>
  <path d="M218.04 240.436L228.866 240.89C228.866 240.89 236.084 241.345 235.184 246.308C235.184 246.308 234.502 251.086 227.495 252.625C224.745 253.231 221.843 253.054 219.277 251.885C216.905 250.816 214.423 248.781 213.978 244.945C213.978 244.945 213.978 240.436 218.04 240.436Z" fill="#231F20" stroke="#231F20" stroke-miterlimit="10"></path>
  <path d="M222.55 259.842L222.819 252.978" stroke="#231F20" stroke-linecap="round" stroke-linejoin="round"></path>
  <path d="M227.587 226.122C230.689 223.613 231.878 219.938 230.242 217.916C228.606 215.893 224.764 216.288 221.662 218.798C218.559 221.307 217.37 224.982 219.006 227.004C220.643 229.027 224.484 228.632 227.587 226.122Z" fill="white" stroke="#231F20" stroke-miterlimit="10"></path>
  <path d="M222.095 221.485C222.095 221.485 221.818 223.411 222.339 224.471C222.575 224.95 223.147 225.152 223.626 224.925C224.366 224.58 225.553 223.571 226.15 220.585" stroke="#231F20" stroke-linecap="round" stroke-linejoin="round"></path>
  <path d="M193.579 249.37C189.424 250.11 184.099 252.288 183.292 258.488C183.292 258.488 182.837 262.551 186.9 262.997H205.078C207.4 262.997 209.318 261.087 209.233 258.765C209.2 257.933 209.006 256.94 208.552 255.779C208.552 255.779 207.576 253.643 204.742 251.666C201.503 249.403 197.457 248.671 193.571 249.37H193.579Z" fill="white" stroke="#231F20" stroke-miterlimit="10"></path>
  <path d="M191.417 250.362L189.996 252.734C189.155 254.139 188.7 255.737 188.667 257.369L188.574 262.66" stroke="#231F20" stroke-linecap="round" stroke-linejoin="round"></path>
  <path d="M204.952 253.979L205.044 254.997C205.229 257.066 204.489 258.345 203.303 259.994C202.638 260.919 202.125 261.937 201.764 263.005" stroke="#231F20" stroke-linecap="round" stroke-linejoin="round"></path>
  <path d="M197.281 251.716C197.281 251.716 195.472 254.425 195.927 261.188" stroke="#231F20" stroke-linecap="round" stroke-linejoin="round"></path>
  <path d="M263.069 257.041C258.914 257.781 253.589 259.96 252.782 266.159C252.782 266.159 252.328 270.222 256.39 270.668H274.568C276.89 270.668 278.808 268.759 278.724 266.437C278.69 265.604 278.497 264.612 278.042 263.451C278.042 263.451 277.067 261.314 274.232 259.337C270.993 257.075 266.947 256.343 263.061 257.041H263.069Z" fill="white" stroke="#231F20" stroke-miterlimit="10"></path>
  <path d="M262.706 258.488L261.285 260.86C260.444 262.265 259.989 263.863 259.956 265.495L259.863 270.786" stroke="#231F20" stroke-linecap="round" stroke-linejoin="round"></path>
  <path d="M269.932 260.296L270.025 261.314C270.26 263.913 269.949 266.538 269.116 269.011L268.553 270.676" stroke="#231F20" stroke-linecap="round" stroke-linejoin="round"></path>
  <path d="M515.395 231.41L480.654 228.256L488.359 169.618C488.595 167.801 490.151 166.438 491.985 166.438H521.502C523.748 166.438 525.464 168.448 525.11 170.669L515.412 231.419L515.395 231.41Z" fill="#FBE493" stroke="#231F20" stroke-miterlimit="10"></path>
  <path d="M507 166.329C507 166.329 506.975 165.429 507.218 164.276C508.27 159.389 515.462 159.557 516.211 164.503C516.312 165.193 516.354 165.529 516.295 166.438" stroke="#231F20" stroke-linecap="round" stroke-linejoin="round"></path>
  <path d="M495.207 171.813L493.163 187.123L500.38 187.232L502.433 171.922L495.207 171.813Z" fill="#AFA7D4" stroke="#231F20" stroke-miterlimit="10"></path>
  <path d="M500.045 176.632C500.207 175.647 499.64 174.733 498.778 174.591C497.917 174.45 497.086 175.134 496.924 176.119C496.762 177.105 497.329 178.019 498.191 178.16C499.053 178.302 499.883 177.618 500.045 176.632Z" stroke="#231F20" stroke-miterlimit="10"></path>
  <path d="M498.694 183.088C498.932 182.118 498.438 181.162 497.59 180.954C496.741 180.745 495.861 181.363 495.622 182.333C495.384 183.303 495.878 184.258 496.726 184.466C497.574 184.675 498.455 184.058 498.694 183.088Z" stroke="#231F20" stroke-miterlimit="10"></path>
  <path d="M522.167 169.147L494.534 169.988C493.289 170.021 492.255 170.947 492.086 172.183L489.681 189.007" stroke="#231F20" stroke-linecap="round" stroke-linejoin="round"></path>
  <path d="M439.125 90.6228C434.389 87.4768 427.458 87.6282 423.715 88.0067C434.902 86.745 438.915 90.4209 439.125 90.6228Z" fill="#231F20" stroke="#231F20" stroke-miterlimit="10"></path>
  <path d="M431.218 76.3312C424.758 74.1273 420.056 67.4231 420.056 59.4993C420.056 53.7456 422.537 48.6313 426.373 45.418V61.0807C426.373 66.7586 428.165 72.0244 431.218 76.3312Z" fill="#F6C34C" stroke="#231F20" stroke-miterlimit="10"></path>
  <path d="M522.613 238.636C522.613 238.636 527.121 224.647 525.321 214.721L526.297 206.621C526.516 204.829 525.313 203.172 523.538 202.81C521.578 202.415 519.686 203.769 519.425 205.755L517.65 219.23L510.399 194.264C509.894 192.531 508.203 191.429 506.412 191.665C504.401 191.934 502.988 193.793 503.283 195.803L506.689 219.71C506.816 220.584 505.562 220.896 505.268 220.063L495.964 194.087C495.241 192.06 492.953 191.059 490.976 191.909C489.412 192.582 488.495 194.23 488.755 195.913L493.912 225.884C493.988 226.347 493.331 226.523 493.172 226.086L484.827 203.366C484.222 201.818 482.64 200.884 480.991 201.103C478.872 201.389 477.467 203.441 477.963 205.519L480.184 214.721C480.184 214.721 475.221 215.176 478.83 226.002L482.438 236.382C482.438 236.382 484.693 244.053 493.264 249.47C493.264 249.47 506.092 260.229 521.444 256.78C523.328 256.36 525.128 255.569 526.642 254.383C529.923 251.809 533.245 246.56 522.588 238.645L522.613 238.636Z" fill="#F2B3C1" stroke="#231F20" stroke-miterlimit="10"></path>
  <path d="M480.199 214.721L483.808 227.802" stroke="#231F20" stroke-linecap="round" stroke-linejoin="round"></path>
  <path d="M486.963 240.89C486.963 240.89 493.734 245.399 495.534 237.282C495.534 237.282 500.952 240.436 503.66 234.573C503.66 234.573 508.623 236.828 509.977 231.419C509.977 231.419 514.94 233.227 516.295 225.556" stroke="#231F20" stroke-linecap="round" stroke-linejoin="round"></path>
  <path d="M302.863 178.172C302.863 178.172 305.571 177.718 306.017 175.918C306.017 175.918 306.917 171.409 313.689 172.309C313.689 172.309 316.843 165.992 323.614 169.601C323.614 169.601 333.145 164.629 339.891 172.15C340.514 172.848 340.993 173.664 341.313 174.547C342.103 176.776 343.197 181.318 340.547 184.675C340.051 185.297 339.437 185.81 338.756 186.214C337.376 187.038 334.247 189.057 333.549 190.798C333.549 190.798 331.824 195.29 328.973 194.601C328.174 194.407 327.534 193.81 327.173 193.078C326.373 191.455 325.229 187.846 328.586 184.49C328.586 184.49 330.52 182.799 330.849 180.83C331.042 179.703 329.948 178.778 328.863 179.157L323.85 180.906C322.369 181.419 321.293 182.698 321.032 184.246C320.241 188.864 317.726 198.167 310.534 195.77L310.139 197.932C309.853 199.521 308.406 200.649 306.791 200.531C304.923 200.396 303.578 198.689 303.889 196.846L304.217 194.87C304.217 194.87 300.608 196.678 300.608 189.907C300.608 189.907 299.254 189.907 299.254 184.944C299.254 184.944 298.354 177.272 302.863 178.172Z" fill="#F2B3C1" stroke="#231F20" stroke-miterlimit="10"></path>
  <path d="M304.218 194.861C304.218 194.407 304.218 186.735 305.118 182.681" stroke="#231F20" stroke-linecap="round" stroke-linejoin="round"></path>
  <path d="M310.535 195.77C310.535 195.77 317.752 175.01 321.815 170.955" stroke="#231F20" stroke-linecap="round" stroke-linejoin="round"></path>
  <path d="M550.261 201.465C548.52 202.213 546.602 202.617 544.591 202.617C536.617 202.617 530.148 196.148 530.148 188.174C530.148 180.2 536.617 173.731 544.591 173.731H544.701C546.038 185.903 548.579 195.812 550.261 201.456V201.465Z" fill="white" fill-opacity="0.5" stroke="#231F20" stroke-miterlimit="10"></path>
  <path d="M542.219 128.021C538.956 130.385 534.943 131.773 530.603 131.773C519.634 131.773 510.751 122.882 510.751 111.921C510.751 103.039 516.589 95.5184 524.63 92.9865C526.102 93.6594 527.549 94.5258 528.937 95.6025C528.937 95.6025 538.316 101.331 542.228 128.03L542.219 128.021Z" fill="white" fill-opacity="0.5" stroke="#231F20" stroke-miterlimit="10"></path>
  <path d="M484.575 158.396C491.553 158.396 497.209 152.74 497.209 145.762C497.209 138.784 491.553 133.127 484.575 133.127C477.597 133.127 471.94 138.784 471.94 145.762C471.94 152.74 477.597 158.396 484.575 158.396Z" fill="white" fill-opacity="0.5" stroke="#231F20" stroke-miterlimit="10"></path>
  <path d="M405.84 195.627C412.817 195.627 418.474 189.97 418.474 182.992C418.474 176.014 412.817 170.358 405.84 170.358C398.862 170.358 393.205 176.014 393.205 182.992C393.205 189.97 398.862 195.627 405.84 195.627Z" fill="white" fill-opacity="0.5" stroke="#231F20" stroke-miterlimit="10"></path>
  <path d="M461.786 206.713L457.185 211.567C452.836 215.79 448.479 219.449 444.206 222.62C440.176 220.509 437.426 216.286 437.426 211.424C437.426 204.451 443.087 198.79 450.06 198.79C455.368 198.79 459.919 202.07 461.786 206.713Z" fill="white" fill-opacity="0.5" stroke="#231F20" stroke-miterlimit="10"></path>
  <path d="M371.545 121.62C371.545 128.594 365.884 134.255 358.91 134.255C355.293 134.255 352.029 132.732 349.725 130.301C354.519 125.279 361.686 120.022 369.652 114.992C370.847 116.918 371.536 119.189 371.536 121.629L371.545 121.62Z" fill="white" fill-opacity="0.5" stroke="#231F20" stroke-miterlimit="10"></path>
  <path d="M406.286 142.835C413.264 142.835 418.92 137.178 418.92 130.2C418.92 123.222 413.264 117.566 406.286 117.566C399.308 117.566 393.651 123.222 393.651 130.2C393.651 137.178 399.308 142.835 406.286 142.835Z" fill="white" fill-opacity="0.5" stroke="#231F20" stroke-miterlimit="10"></path>
  <path d="M370.864 172.839C375.598 172.839 379.435 169.002 379.435 164.268C379.435 159.534 375.598 155.696 370.864 155.696C366.13 155.696 362.292 159.534 362.292 164.268C362.292 169.002 366.13 172.839 370.864 172.839Z" fill="white" fill-opacity="0.5" stroke="#231F20" stroke-miterlimit="10"></path>
  <path d="M411.25 97.7055C411.25 104.679 405.589 110.34 398.615 110.34C394.115 110.34 390.161 107.985 387.924 104.435C396.319 99.943 404.36 96.04 410.417 93.1968C410.955 94.5931 411.25 96.1157 411.25 97.7055Z" fill="white" fill-opacity="0.5" stroke="#231F20" stroke-miterlimit="10"></path>
  <path d="M335.669 152.079C335.669 157.067 331.631 161.105 326.643 161.105C323.674 161.105 321.041 159.675 319.4 157.463C327.619 152.718 328.586 148.841 328.586 148.841C329.545 147.024 330.521 145.585 331.471 144.458C333.995 146.048 335.669 148.866 335.669 152.079Z" fill="white" fill-opacity="0.5" stroke="#231F20" stroke-miterlimit="10"></path>
  <path d="M553.753 129.889C550.599 133.498 550.144 139.815 550.144 139.815C548.336 159.667 543.827 160.121 543.827 160.121C545.182 105.52 528.938 95.5941 528.938 95.5941C514.95 84.7682 495.098 95.5941 495.098 95.5941C489.916 95.0305 486.038 92.9781 483.153 90.4209C476.735 84.7177 475.213 76.4826 475.213 76.4826C477.887 73.16 479.519 67.7092 479.519 67.7092L475.7 47.3106C467.129 42.3477 464.874 33.7761 464.874 33.7761C462.62 26.5588 452.694 27.9131 452.694 27.9131C437.805 29.2674 438.832 19.4172 438.832 19.4172C426.323 28.5272 427.425 41.2205 427.425 41.2205V61.0723C428.78 83.4055 448.152 86.9216 448.152 86.9216L448.186 95.1399L439.16 90.6312C439.16 90.6312 439.16 90.6312 439.151 90.6228C438.941 90.4209 434.929 86.745 423.741 88.0067C423.716 88.0067 423.699 88.0067 423.682 88.0067C423.463 88.032 423.262 88.0488 423.076 88.0824C422.151 88.1834 421.503 88.3011 421.243 88.3516C421.159 88.3684 421.117 88.3768 421.117 88.3768C409.836 63.1079 417.508 48.6649 417.508 48.6649L427.888 28.8132C419.316 10.7615 429.242 4.44432 429.242 4.44432C440.607 -3.5132 451.971 4.43591 455.327 7.19496C456.639 8.27167 458.137 9.09602 459.777 9.5082C464.555 10.7111 468.946 8.96143 468.946 8.96143C486.089 0.389852 502.34 25.2045 502.34 25.2045C523.101 36.9389 520.392 55.4364 520.392 55.4364C519.938 64.008 524.901 66.7166 524.901 66.7166C537.989 73.9339 539.344 88.3768 539.344 88.3768L554.233 105.52C564.158 119.963 553.778 129.889 553.778 129.889H553.753Z" fill="#002346" stroke="#231F20" stroke-miterlimit="10"></path>
  <path d="M435.104 79.6707L431.47 102.811L430.107 123.891C429.729 129.771 428.198 135.525 425.531 140.774C425.329 141.169 425.119 141.581 424.9 141.993C424.194 143.322 423.369 144.584 422.486 145.796C420.779 148.117 417.548 154.392 422.444 164.184C422.444 164.184 425.153 168.692 424.253 177.272C424.253 177.272 422.898 191.261 427.407 193.515C427.407 193.515 433.27 164.184 446.359 152.003C446.359 152.003 454.484 146.586 455.83 134.406C455.83 134.406 456.285 126.28 462.602 119.517C462.602 119.517 485.616 95.1483 485.844 73.9423" stroke="#231F20" stroke-linecap="round" stroke-linejoin="round"></path>
  <path d="M460.307 9.59226C460.307 9.59226 471.486 20.2079 478.543 36.2407L490.185 36.6277C490.185 36.6277 481.605 17.1797 469.618 8.55762C469.618 8.55762 466.136 10.6774 460.307 9.59226Z" fill="#FBE493" stroke="#231F20" stroke-miterlimit="10"></path>
  <path d="M483.81 68.9709H487.872V71.9066C487.872 73.0254 486.964 73.9338 485.845 73.9338C484.726 73.9338 483.818 73.0254 483.818 71.9066V68.9709H483.81Z" fill="#FBE493" stroke="#231F20" stroke-miterlimit="10"></path>
  <path d="M483.809 70.3252C492.529 70.3252 499.598 62.4466 499.598 52.7278C499.598 43.0091 492.529 35.1304 483.809 35.1304C475.089 35.1304 468.021 43.0091 468.021 52.7278C468.021 62.4466 475.089 70.3252 483.809 70.3252Z" fill="#FBE493" stroke="#231F20" stroke-miterlimit="10"></path>
  <path d="M431.5 44C432.667 43 434 41.5 437 44" stroke="#231F20" stroke-linecap="round"></path>
  <path d="M449 44.3681C450.167 43.3681 451.5 41.8681 454.5 44.3681" stroke="#231F20" stroke-linecap="round"></path>
  <path d="M488.772 65.3623C482.513 65.3623 477.433 59.7096 477.433 52.7278C477.433 45.7461 482.505 40.0934 488.772 40.0934C489.31 40.0934 489.832 40.1354 490.353 40.2111" stroke="#231F20" stroke-linecap="round" stroke-linejoin="round"></path>
  <path d="M434.29 52.5932C435.219 52.5932 435.972 51.3391 435.972 49.7921C435.972 48.2451 435.219 46.991 434.29 46.991C433.361 46.991 432.607 48.2451 432.607 49.7921C432.607 51.3391 433.361 52.5932 434.29 52.5932Z" fill="#231F20" stroke="#231F20" stroke-miterlimit="10"></path>
  <path d="M451.954 53.4344C452.883 53.4344 453.636 52.1803 453.636 50.6333C453.636 49.0863 452.883 47.8322 451.954 47.8322C451.025 47.8322 450.271 49.0863 450.271 50.6333C450.271 52.1803 451.025 53.4344 451.954 53.4344Z" fill="#231F20" stroke="#231F20" stroke-miterlimit="10"></path>
  <path d="M442.7 52.3156L441.195 62.8808C441.102 63.5201 441.598 64.0921 442.246 64.0921H446.065" stroke="#231F20" stroke-linecap="round" stroke-linejoin="round"></path>
  <path d="M437.653 70.8215C437.653 70.8215 445.224 78.3921 452.794 69.9803" stroke="#231F20" stroke-linecap="round" stroke-linejoin="round"></path>
  <path d="M586.592 269.46C586.592 269.46 556.524 265.265 563.581 228.985C563.581 229.012 597.138 236.54 586.592 269.46Z" fill="#6EC186"></path>
  <path d="M585.075 261.898C584.481 260.057 583.792 258.269 583.025 256.498C583.025 256.262 582.964 256.036 582.946 255.8C582.946 255.303 582.868 254.806 582.833 254.308C582.737 253.218 582.667 252.145 582.615 251.055C582.484 248.891 582.353 246.719 582.318 244.556C582.318 244.504 582.275 244.46 582.222 244.46C582.17 244.46 582.126 244.504 582.126 244.556V251.064C582.126 252.154 582.231 253.227 582.301 254.317V255.033C580.617 251.421 578.602 247.976 576.273 244.739C575.252 243.3 574.153 241.904 572.984 240.578C571.824 239.2 570.525 237.909 569.321 236.54C569.242 236.461 569.111 236.54 569.19 236.679C571.345 239.061 573.281 241.634 574.973 244.373C575.889 245.76 576.744 247.173 577.564 248.621L577.285 248.508L576.221 248.08L573.77 247.156C572.147 246.554 570.542 245.995 568.937 245.35C568.841 245.35 568.771 245.489 568.867 245.524C570.463 246.161 572.051 246.833 573.621 247.513L575.933 248.508C576.325 248.673 576.709 248.839 577.093 248.996C577.346 249.127 577.616 249.223 577.887 249.284C578.489 250.374 579.047 251.456 579.649 252.573C581.045 255.381 582.266 258.269 583.313 261.226L583.531 261.854C582.737 261.409 581.917 261.017 581.071 260.694C580.041 260.205 579.003 259.743 577.957 259.272C575.854 258.304 573.761 257.327 571.746 256.184C571.702 256.158 571.641 256.175 571.615 256.219C571.589 256.262 571.606 256.324 571.65 256.35C573.708 257.51 575.732 258.661 577.8 259.821C578.829 260.388 579.867 260.982 580.931 261.444C581.804 261.976 582.754 262.36 583.749 262.604C584.752 265.352 585.406 268.213 585.711 271.118C586.043 275.226 585.999 279.352 586.104 283.461M586.209 283.461C586.505 279.736 586.68 275.977 586.697 272.234C586.706 268.736 586.156 265.256 585.057 261.932L586.217 283.47L586.209 283.461Z" fill="#231F20"></path>
  <path d="M580.452 240.57C580.164 242.689 580.068 244.827 580.155 246.964C580.155 247.025 580.251 247.025 580.251 246.964C580.382 244.844 580.391 242.733 580.644 240.613C580.652 240.5 580.469 240.448 580.46 240.57H580.452Z" fill="#231F20"></path>
  <path d="M571.867 242.384C570.524 241.878 569.233 241.241 568.003 240.491C567.96 240.465 567.899 240.482 567.873 240.526C567.846 240.57 567.864 240.631 567.908 240.657C569.111 241.459 570.419 242.087 571.806 242.515C571.885 242.541 571.937 242.48 571.867 242.384Z" fill="#231F20"></path>
  <path d="M587.552 327.015C587.552 323.692 587.474 320.377 587.422 317.054C587.36 306.036 587.273 295.01 587.073 283.993C586.907 275.253 586.706 266.503 586.462 257.754C586.462 257.702 586.427 257.658 586.383 257.641V250.47C586.383 250.47 586.314 250.392 586.244 250.392C586.174 250.392 586.096 250.392 586.096 250.488V257.667C586.096 257.667 586.026 257.728 586.026 257.772C585.572 273.342 585.18 288.913 585.092 304.484V313.992C584.988 324.146 584.927 334.299 584.979 344.453V349.303C584.979 358.558 585.084 367.892 585.084 377.173C585.084 377.67 585.642 377.923 586.244 377.95C586.846 377.976 587.631 377.705 587.631 377.13C587.631 366.88 587.709 356.648 587.701 346.398C587.587 339.934 587.605 333.479 587.561 327.024L587.552 327.015Z" fill="#231F20"></path>
  <path d="M575.017 316.931C575.017 316.931 560.571 306.237 546.859 313.46C533.137 320.691 531 348.561 531 348.561C531 348.561 551.133 351.44 563.808 339.376C576.02 327.757 575.017 316.931 575.017 316.931Z" fill="#7CD295"></path>
  <path d="M578.951 317.647C576.299 316.6 573.421 316.225 570.586 316.556C570.001 316.452 569.4 316.391 568.806 316.382L566.774 316.234C565.378 316.12 563.974 316.033 562.561 315.937C559.717 315.719 556.856 315.545 554.012 315.265C553.907 315.265 553.881 315.431 554.012 315.44C556.821 315.798 559.63 316.208 562.456 316.495C563.904 316.635 565.361 316.783 566.817 316.888L567.873 316.993C567.446 317.089 567.018 317.193 566.591 317.315C564.323 317.978 562.133 318.868 560.048 319.976C558.888 320.177 557.737 320.499 556.673 320.761C554.884 321.18 553.096 321.642 551.325 322.104C547.853 323.02 544.39 324.058 540.858 325.061C540.753 325.061 540.797 325.271 540.919 325.245C544.39 324.39 547.853 323.605 551.325 322.785L556.411 321.555L557.728 321.258C553.846 323.666 550.383 326.675 547.47 330.191C544.643 333.636 542.245 337.413 540.334 341.443C540.273 341.548 540.43 341.644 540.482 341.539C542.855 337.405 545.76 333.593 549.118 330.208L548.918 330.784L548.124 333.34C547.592 335.041 547.051 336.742 546.536 338.451C546.536 338.565 546.676 338.6 546.711 338.451C547.321 336.811 547.871 335.145 548.482 333.488C548.769 332.677 549.057 331.857 549.336 331.046C549.485 330.627 549.633 330.199 549.773 329.772L549.912 329.388C551.517 327.818 553.236 326.361 555.033 325.018C557.414 323.273 559.987 321.799 562.7 320.621C562.7 320.874 562.604 321.127 562.552 321.363C562.412 322.026 562.264 322.68 562.124 323.343C561.845 324.704 561.584 326.082 561.313 327.452C560.772 330.252 560.432 333.087 559.9 335.887C559.9 336 560.066 336.053 560.083 335.887C560.729 333.078 561.566 330.304 562.186 327.486C562.5 326.073 562.822 324.669 563.11 323.256C563.25 322.593 563.372 321.939 563.511 321.267C563.581 320.909 563.677 320.534 563.712 320.168C563.974 320.063 564.235 319.932 564.497 319.845C568.292 318.449 572.479 317.42 576.518 318.205C580.391 318.92 583.662 321.52 585.214 325.14C585.345 325.454 585.843 325.253 585.773 324.931C584.962 321.511 582.109 318.929 578.934 317.656L578.951 317.647Z" fill="#231F20"></path>
  <path d="M556.838 329.493L555.625 334.997C555.163 336.75 554.823 338.539 554.604 340.344C554.604 340.414 554.709 340.414 554.735 340.344C555.259 338.582 555.669 336.785 555.965 334.971C556.314 333.165 556.672 331.351 557.021 329.545C557.047 329.432 556.872 329.379 556.846 329.502L556.838 329.493Z" fill="#231F20"></path>
  <path d="M542.862 334.151C541.021 335.075 539.242 336.139 537.323 336.907C537.193 336.907 537.323 337.142 537.393 337.073C539.277 336.227 541.126 335.276 542.905 334.229L542.862 334.16V334.151Z" fill="#231F20"></path>
  <path d="M578.253 297.287C578.253 297.287 560.606 298.447 552.398 286.767C544.189 275.087 546.021 258.504 546.021 258.504C546.021 258.504 564.523 260.764 571.929 269.12C579.335 277.486 578.253 297.296 578.253 297.296V297.287Z" fill="#7CD295"></path>
  <path d="M586.548 314.698C585.938 312.806 585.188 310.939 584.464 309.089C583.748 307.24 583.042 305.539 582.265 303.795C580.687 300.236 578.916 296.755 576.971 293.388C575.732 291.233 574.389 289.157 573.019 287.107C572.993 286.793 572.94 286.479 572.879 286.174C572.801 285.616 572.731 285.014 572.635 284.534C572.461 283.374 572.269 282.301 572.077 281.184C571.676 278.759 571.161 276.326 570.786 273.883C570.786 273.77 570.585 273.778 570.603 273.883C570.96 276.291 571.205 278.707 571.536 281.123C571.702 282.283 571.859 283.496 572.033 284.674L572.243 285.956C569.538 282.022 566.625 278.236 563.502 274.625C563.083 274.136 562.647 273.665 562.22 273.194C562.22 273.054 562.106 272.932 562.054 272.793C561.923 272.461 561.792 272.121 561.67 271.772C561.409 271.074 561.147 270.376 560.894 269.67C560.405 268.292 559.961 266.896 559.585 265.474C559.559 265.43 559.507 265.413 559.463 265.43C559.428 265.448 559.411 265.491 559.411 265.526C559.76 266.974 560.144 268.414 560.571 269.853C560.772 270.551 560.999 271.231 561.243 271.903L561.374 272.252C559.114 269.792 556.75 267.419 554.439 265.082C554.395 265.055 554.334 265.073 554.308 265.116C554.291 265.143 554.291 265.186 554.308 265.212C558.87 269.984 563.049 275.113 566.808 280.539C566.381 280.408 565.945 280.295 565.5 280.207C564.148 279.954 562.769 279.754 561.409 279.579C558.53 279.213 555.625 278.847 552.79 278.419C552.677 278.419 552.624 278.567 552.79 278.594C555.529 279.134 558.233 279.754 560.955 280.373C562.237 280.661 563.52 280.914 564.819 281.167C565.875 281.394 566.904 281.69 567.916 282.057L568.78 283.269C570.071 285.153 571.309 287.09 572.53 289.053L570.725 288.704C569.373 288.442 567.994 288.198 566.634 287.962C563.938 287.526 561.243 287.046 558.539 286.444C558.425 286.444 558.373 286.593 558.539 286.619C561.234 287.256 563.912 287.997 566.634 288.712C567.925 289.061 569.233 289.375 570.542 289.663C571.187 289.803 571.85 289.951 572.504 290.082C572.757 290.152 573.028 290.195 573.289 290.221C575.871 294.409 578.296 298.683 580.53 303.062C581.507 304.981 582.457 306.909 583.382 308.845C584.315 310.86 585.127 312.901 585.999 314.925C586.043 315.353 586.679 315.161 586.54 314.716L586.548 314.698Z" fill="#231F20"></path>
  <path d="M568.483 274.119C568.134 272.444 567.785 270.769 567.41 269.085C567.41 268.972 567.21 269.016 567.236 269.085C567.567 270.743 567.899 272.409 568.195 274.058C568.44 275.724 568.771 277.372 569.19 279.004C569.059 277.355 568.823 275.724 568.483 274.11V274.119Z" fill="#231F20"></path>
  <path d="M558.18 273.63C557.36 273.229 556.488 272.888 555.651 272.566L554.308 272.034L553.627 271.772C553.366 271.694 553.113 271.58 552.877 271.441C552.746 271.345 552.668 271.58 552.799 271.606C553.06 271.676 553.313 271.781 553.549 271.92L554.22 272.208L555.511 272.784C556.357 273.176 557.229 273.525 558.11 273.813C558.215 273.848 558.276 273.708 558.18 273.638V273.63Z" fill="#231F20"></path>
  <path d="M596.327 283.391C596.327 283.391 607.013 263.442 623.264 260.345C639.515 257.248 649.468 273.979 649.468 273.979C649.468 273.979 637.614 289.114 622.697 291.765C607.781 294.417 596.327 283.391 596.327 283.391Z" fill="#7CD295"></path>
  <path d="M634.159 269.295C629.937 268.728 625.645 268.78 621.441 269.443L622.174 269.05L625.785 267.201C628.262 265.832 630.801 264.584 633.409 263.468C633.461 263.468 633.496 263.415 633.496 263.363C633.496 263.311 633.444 263.276 633.392 263.276C633.374 263.276 633.357 263.285 633.339 263.302C630.792 264.462 628.158 265.474 625.611 266.652C624.328 267.227 623.081 267.812 621.842 268.501C621.031 268.928 620.141 269.33 619.356 269.844C615.788 270.577 612.317 271.746 609.028 273.316C609.708 272.583 610.38 271.851 611.06 271.109C612.578 269.452 614.07 267.707 615.684 266.198C615.78 266.12 615.684 265.997 615.553 266.067C613.852 267.62 612.081 269.051 610.406 270.69C609.612 271.467 608.845 272.278 608.095 273.107C607.728 273.508 607.353 273.935 606.995 274.389C595.708 280.434 587.717 291.207 585.223 303.768C585.223 303.882 585.362 303.943 585.397 303.768C587.691 296.162 591.791 289.227 597.348 283.548C603.323 277.442 610.851 273.089 619.121 270.943C624.032 269.696 629.1 269.234 634.159 269.583C634.238 269.626 634.334 269.6 634.377 269.522C634.421 269.443 634.395 269.347 634.316 269.303C634.273 269.277 634.22 269.277 634.168 269.303L634.159 269.295Z" fill="#231F20"></path>
  <path d="M649.477 273.979C649.477 273.979 637.622 289.131 622.706 291.765C611.322 293.78 601.971 287.849 598.168 284.926L597.348 283.574C597.348 283.574 605.041 277.084 619.6 273.351C634.159 269.617 649.486 273.979 649.486 273.979H649.477Z" fill="#6EC186"></path>
  <path d="M624.721 262.133C623.482 262.866 622.27 263.66 621.11 264.515C619.976 265.369 618.929 266.338 617.978 267.393C617.882 267.489 617.978 267.603 618.118 267.524C619.191 266.591 620.281 265.649 621.406 264.759C622.497 263.869 623.631 263.049 624.817 262.299C624.861 262.273 624.878 262.22 624.852 262.168C624.826 262.116 624.773 262.107 624.721 262.133Z" fill="#231F20"></path>
  <path d="M633.645 265.605C633.044 265.849 632.433 266.067 631.831 266.32L630.026 267.07C629.886 267.07 629.956 267.323 630.087 267.279L631.901 266.538C632.503 266.294 633.061 266.015 633.706 265.771C633.811 265.675 633.767 265.509 633.645 265.596V265.605Z" fill="#231F20"></path>
  <path d="M594.226 308.514C594.226 308.514 597.078 328.315 611.968 335.241C626.85 342.167 644.994 335.241 644.994 335.241C644.994 335.241 637.832 292.402 594.226 308.514Z" fill="#7CD295"></path>
  <path d="M634.7 322.357C633.339 322.209 631.969 321.965 630.609 321.721L628.611 321.337L627.573 321.127C627.172 320.761 626.779 320.377 626.413 319.967C623.595 317.481 620.551 315.274 617.315 313.364C615.553 312.326 613.729 311.384 611.854 310.555H612.142L617.035 310.764C620.307 310.913 623.569 310.982 626.84 311.201C626.954 311.201 626.945 311.017 626.84 311.017C623.569 310.799 620.307 310.424 617.035 310.154L612.273 309.726L609.821 309.517L609.193 309.447C608.339 309.133 607.492 308.837 606.629 308.566C602.573 307.17 598.202 306.926 594.015 307.868C590.282 308.819 586.531 311.279 585.571 315.222C585.571 315.361 585.746 315.457 585.807 315.318C587.203 312.02 590.857 310.354 594.172 309.674C596.397 309.247 598.673 309.203 600.915 309.534C601.072 310.555 601.316 311.558 601.665 312.526L602.904 316.714C603.75 319.487 604.684 322.244 605.504 325.027C605.53 325.07 605.582 325.088 605.626 325.07C605.661 325.053 605.678 325.009 605.678 324.974C604.98 322.2 604.404 319.4 603.733 316.609C603.41 315.248 603.061 313.879 602.73 312.518C602.538 311.567 602.285 310.625 601.979 309.709C603.27 309.962 604.553 310.293 605.809 310.703C608.103 311.392 610.354 312.212 612.552 313.181C612.77 314.594 613.084 315.989 613.407 317.376C613.808 319.121 614.27 320.848 614.829 322.567C614.846 322.61 614.89 322.636 614.942 322.619C614.994 322.602 615.012 322.558 614.994 322.506L614.924 322.192C614.593 320.569 614.227 318.964 613.895 317.342C613.616 316.033 613.363 314.725 613.075 313.425C614.924 314.254 616.756 315.17 618.51 316.181C618.51 316.583 618.641 316.993 618.693 317.342C618.806 318.022 618.928 318.694 619.05 319.374C619.33 320.901 619.644 322.427 620.001 323.927C620.682 326.85 621.537 329.728 622.566 332.546C622.54 332.572 622.531 332.616 622.566 332.642L622.644 332.747C622.644 332.747 622.74 332.773 622.775 332.738C622.793 332.712 622.801 332.685 622.793 332.651C622.112 329.711 621.327 326.806 620.673 323.858C620.35 322.392 620.027 320.918 619.722 319.444L619.303 317.237C619.303 317.028 619.234 316.801 619.199 316.565C621.196 317.743 623.133 319.034 624.982 320.438C628.192 322.846 631.167 325.559 633.854 328.533C633.967 328.647 634.176 328.533 634.072 328.359C632.911 326.867 631.812 325.41 630.53 324.023C629.78 323.23 629.004 322.453 628.218 321.712H628.463C629.169 321.825 629.858 321.93 630.565 322.026C631.943 322.209 633.321 322.349 634.708 322.514C634.804 322.541 634.839 322.349 634.708 322.34L634.7 322.357Z" fill="#231F20"></path>
  <path d="M624.293 329.073C624.293 328.899 624.232 328.724 624.197 328.55C624.162 328.375 624.049 328.123 624.023 327.905C623.726 326.579 623.456 325.244 623.229 323.901C623.229 323.805 623.063 323.84 623.063 323.901C623.159 325.68 623.552 327.425 624.223 329.073C624.223 329.134 624.337 329.073 624.328 329.073H624.293Z" fill="#231F20"></path>
  <path d="M611.794 328.751C611.794 328.708 611.759 328.673 611.715 328.673C611.296 326.911 610.895 325.201 610.555 323.395C610.354 322.471 610.162 321.546 609.988 320.604L609.709 319.104C609.665 318.659 609.561 318.231 609.386 317.821C609.36 317.778 609.308 317.76 609.264 317.786C609.247 317.786 609.238 317.804 609.229 317.821C609.212 318.72 609.342 319.618 609.595 320.482C609.779 321.441 609.962 322.41 610.171 323.369C610.607 325.323 611.096 327.268 611.654 329.153C611.654 329.257 611.863 329.231 611.855 329.153L611.794 328.751Z" fill="#231F20"></path>
  <path d="M633.365 316.652C630.644 316.286 627.931 315.885 625.2 315.553C625.087 315.553 625.035 315.719 625.2 315.736C627.904 316.129 630.635 316.478 633.356 316.836C633.435 316.844 633.487 316.67 633.365 316.652Z" fill="#231F20"></path>
  <path d="M586.566 262.133C586.566 262.133 577.468 222.181 620.394 206C620.394 205.939 632.293 258.548 586.566 262.133Z" fill="#7CD295"></path>
  <path d="M595.848 239.409L596.31 239.13C597.121 238.694 597.915 238.232 598.726 237.778L603.707 234.987C606.978 233.146 610.214 231.253 613.512 229.448C613.616 229.448 613.512 229.238 613.416 229.299C610.11 231.096 606.743 232.771 603.428 234.542L598.499 237.141L596.484 238.206C597.915 235.484 599.459 232.832 601.108 230.259C603.349 226.787 605.818 223.577 608.374 220.384C608.418 220.315 608.4 220.219 608.33 220.175C608.278 220.14 608.217 220.14 608.165 220.175C604.396 223.839 601.064 227.93 598.229 232.352V231.934C598.29 230.939 598.307 229.945 598.325 228.95C598.325 226.996 598.255 225.043 598.325 223.097C598.325 222.984 598.15 222.984 598.15 223.097C598.072 225.016 597.836 226.935 597.723 228.881C597.723 229.84 597.627 230.791 597.61 231.751C597.61 232.274 597.54 232.911 597.61 233.425C596.72 234.839 595.874 236.26 595.062 237.708C593.632 240.334 592.35 243.038 591.224 245.803C591.224 244.809 591.12 243.815 591.059 242.82C590.928 240.631 590.666 238.459 590.57 236.26C590.57 236.147 590.387 236.147 590.387 236.26V242.829C590.387 243.919 590.457 245.018 590.535 246.1L590.605 247.33C589.244 250.898 588.154 254.57 587.369 258.304C586.627 262.299 586.086 266.329 585.764 270.376C586.235 266.73 587.002 263.128 588.075 259.612C588.607 257.728 589.174 255.861 589.776 253.994C591.556 253.148 593.248 252.102 595.001 251.151C596.763 250.2 598.587 249.188 600.392 248.202C603.969 246.24 607.536 244.233 611.244 242.497C611.348 242.497 611.244 242.288 611.148 242.332C607.397 244.033 603.629 245.655 599.956 247.487C598.133 248.412 596.327 249.397 594.548 250.401C593.056 251.229 591.521 252.075 590.099 253.035C590.518 251.796 590.954 250.558 591.425 249.336C592.733 245.952 594.208 242.637 595.839 239.401L595.848 239.409Z" fill="#231F20"></path>
  <path d="M592.227 230.276C592.227 230.163 592.027 230.163 592.044 230.276C592.192 232.588 592.28 234.83 592.515 237.098C592.515 237.229 592.724 237.229 592.716 237.098C592.637 234.821 592.393 232.553 592.227 230.276Z" fill="#231F20"></path>
  <path d="M612.814 237.909C610.118 239 607.414 240.029 604.718 241.137C604.64 241.137 604.718 241.302 604.718 241.268C607.44 240.247 610.109 239.139 612.814 238.084C612.979 238.049 612.918 237.848 612.814 237.909Z" fill="#231F20"></path>
  <path d="M616.896 219.477C614.262 220.69 611.714 222.059 609.255 223.586C609.141 223.656 609.255 223.847 609.385 223.769C611.871 222.321 614.401 220.925 616.992 219.643C617.097 219.582 617.001 219.434 616.896 219.477Z" fill="#231F20"></path>
  <path d="M616.251 348.509H554.317V413.784H616.251V348.509Z" fill="#2F2E41"></path>
  <path d="M616.251 348.509H554.317V413.784H616.251V348.509Z" fill="#AFA7D4"></path>
  <path d="M550.051 371.599V457.243H553.217V418.634H585.214V457.243H588.389V418.634H617V457.243H620.167V371.599" stroke="#231F20"></path>
</svg>
